Coordinates
version=1
nRows=22
nColumns=24
inDegrees=yes

Units are S.I. units (second, meters, Newtons, ...)
Angles are in degrees.

endheader
time	pelvis_tilt	pelvis_list	pelvis_rotation	pelvis_tx	pelvis_ty	pelvis_tz	hip_flexion_r	hip_adduction_r	hip_rotation_r	knee_angle_r	ankle_angle_r	subtalar_angle_r	mtp_angle_r	hip_flexion_l	hip_adduction_l	hip_rotation_l	knee_angle_l	ankle_angle_l	subtalar_angle_l	mtp_angle_l	lumbar_extension	lumbar_bending	lumbar_rotation
      0.78150000	      6.84834860	     -4.40471400	      3.09893820	     -0.46808430	      1.01733221	      0.32041814	     -0.01504396	      9.69377990	     -3.10099850	    -11.55367224	      3.47487323	    -13.90624351	     -4.24526817	     10.33739105	     -4.75582975	      2.43245978	    -67.36385842	     -8.90969310	     -7.07777418	      2.54708849	     -8.24025844	      8.51850475	      1.94989979
      0.78566667	      6.87934140	     -4.28818572	      3.01300442	     -0.46309368	      1.01794824	      0.32078896	     -0.51709189	      9.59024111	     -3.07763596	    -11.29829655	      3.62230945	    -13.64465230	     -4.23221120	     10.85491314	     -4.58404950	      2.41573387	    -67.17556855	     -8.17535814	     -7.23011932	      2.50026356	     -8.34301097	      8.36888128	      2.17637122
      0.78983333	      6.85571461	     -4.16087890	      2.92521332	     -0.45811012	      1.01846235	      0.32116017	     -0.95991709	      9.47615219	     -3.01415356	    -11.04313190	      3.74869963	    -13.51587087	     -4.22531488	     11.42388696	     -4.39242018	      2.39875134	    -66.94183835	     -7.48118139	     -7.46386550	      2.48194396	     -8.35653573	      8.20467369	      2.27600883
      0.79400000	      6.86209302	     -4.03088861	      2.82560149	     -0.45312953	      1.01898924	      0.32154988	     -1.43479802	      9.35936128	     -2.93864807	    -10.78923805	      3.88769507	    -13.35274375	     -4.21820867	     11.93688231	     -4.20826075	      2.35950212	    -66.64486196	     -6.76601349	     -7.65044393	      2.45627399	     -8.41323448	      8.03798513	      2.43418388
      0.79816667	      6.86657676	     -3.91216880	      2.72704399	     -0.44815194	      1.01945276	      0.32192923	     -1.90976398	      9.25342092	     -2.85727737	    -10.52625768	      4.04106796	    -13.15387605	     -4.21080763	     12.44047682	     -4.03765699	      2.32309594	    -66.30255383	     -6.05823934	     -7.79127631	      2.40602695	     -8.45896545	      7.89871998	      2.66967581
      0.80233333	      6.83291432	     -3.78131497	      2.62050687	     -0.44320001	      1.01986044	      0.32230158	     -2.32966642	      9.13213908	     -2.75508477	    -10.28839231	      4.15534142	    -13.05261234	     -4.20750327	     12.96902375	     -3.84700831	      2.27858703	    -65.90284250	     -5.37146115	     -8.01098829	      2.38965342	     -8.47504956	      7.74220531	      2.75612124
      0.80650000	      6.82266899	     -3.67253022	      2.49634542	     -0.43824437	      1.02023437	      0.32273000	     -2.77522019	      9.03622340	     -2.64434454	    -10.04850945	      4.29283354	    -12.92112801	     -4.20560123	     13.45815515	     -3.70750432	      2.19405419	    -65.46287607	     -4.66227886	     -8.15280200	      2.35103776	     -8.50810915	      7.58111499	      2.95153205
      0.81066667	      6.77599959	     -3.55792093	      2.38946688	     -0.43331964	      1.02053020	      0.32309338	     -3.17689086	      8.93208269	     -2.51804804	     -9.81068930	      4.41100837	    -12.82484067	     -4.20443956	     13.97721397	     -3.53776358	      2.15070423	    -64.97355988	     -4.00647007	     -8.33430453	      2.33218806	     -8.51317390	      7.44407846	      3.05932407
      0.81483333	      6.75095863	     -3.44833570	      2.24520451	     -0.42836754	      1.02080448	      0.32352960	     -3.59750455	      8.83058080	     -2.38301867	     -9.58738993	      4.54345380	    -12.71809100	     -4.20755301	     14.44547224	     -3.40735554	      2.03463079	    -64.42960459	     -3.33766113	     -8.45137920	      2.28509255	     -8.52228344	      7.28842876	      3.27460608
      0.81900000	      6.71566555	     -3.33780582	      2.11441490	     -0.42344499	      1.02103355	      0.32392165	     -4.00558921	      8.72706418	     -2.24166926	     -9.35967222	      4.66033859	    -12.63073111	     -4.21275668	     14.91370802	     -3.26349915	      1.94615064	    -63.83844109	     -2.71715792	     -8.59234161	      2.23689731	     -8.53530016	      7.14726386	      3.43905085
      0.82316667	      6.66748923	     -3.23345349	      1.98186612	     -0.41852281	      1.02119255	      0.32431406	     -4.39681449	      8.62924756	     -2.09197161	     -9.13653746	      4.77541810	    -12.55348313	     -4.21943771	     15.38202379	     -3.12901458	      1.85381716	    -63.20471703	     -2.12890087	     -8.72123718	      2.18608155	     -8.53157341	      7.00705429	      3.59059667
      0.82733333	      6.60927354	     -3.14107785	      1.85112879	     -0.41361069	      1.02129473	      0.32469415	     -4.77384104	      8.54332587	     -1.93677389	     -8.91564881	      4.88537688	    -12.48949979	     -4.22832222	     15.84948771	     -3.00947020	      1.76411060	    -62.52995992	     -1.58055999	     -8.83938240	      2.12866780	     -8.51774336	      6.88018008	      3.73976122
      0.83150000	      6.57018606	     -3.04764942	      1.71188504	     -0.40870393	      1.02138978	      0.32507404	     -5.17198165	      8.45458699	     -1.76770778	     -8.69276528	      4.99034338	    -12.43923982	     -4.24015672	     16.27367557	     -2.89534514	      1.65877039	    -61.80099902	     -1.06739966	     -8.94634684	      2.06154992	     -8.52781680	      6.75273598	      3.89032117
      0.83566667	      6.53172268	     -2.96619742	      1.58455239	     -0.40379346	      1.02143566	      0.32544341	     -5.58530847	      8.38324948	     -1.57089415	     -8.43873798	      5.09548660	    -12.43883184	     -4.27449779	     16.68531840	     -2.79463477	      1.56614104	    -61.03167992	     -0.61129002	     -9.03356961	      1.89894229	     -8.54206032	      6.63581676	      4.13819135
      0.83983333	      6.44189390	     -2.88653716	      1.46870042	     -0.39889195	      1.02135623	      0.32576522	     -5.91908790	      8.30562143	     -1.43705844	     -8.22605709	      5.18802939	    -12.38179154	     -4.28083675	     17.14513271	     -2.68676803	      1.48895561	    -60.23254087	     -0.18099983	     -9.15449278	      1.86141237	     -8.49231724	      6.52105131	      4.16930286
      0.84400000	      6.43385339	     -2.79280250	      1.32315281	     -0.39398372	      1.02138638	      0.32613048	     -6.35999002	      8.21485180	     -1.22403389	     -7.98320968	      5.27987551	    -12.40837005	     -4.32859927	     17.47241295	     -2.58096971	      1.37046661	    -59.34882903	      0.17280513	     -9.26216391	      1.64715838	     -8.54118605	      6.39863216	      4.39607564
      0.84816667	      6.38379041	     -2.71810813	      1.18871572	     -0.38907029	      1.02130635	      0.32646855	     -6.75233760	      8.14357586	     -1.01655140	     -7.74204639	      5.36673310	    -12.44700653	     -4.39635495	     17.83896363	     -2.49287270	      1.26522835	    -58.43942844	      0.48667921	     -9.36364357	      1.35922502	     -8.53235776	      6.28928911	      4.53213166
      0.85233333	      6.28392588	     -2.65265019	      1.08068564	     -0.38416286	      1.02109068	      0.32674843	     -7.07167113	      8.07611775	     -0.89553893	     -7.53042203	      5.45507346	    -12.38392648	     -4.40459579	     18.25736067	     -2.40602512	      1.18881989	    -57.51053011	      0.80466437	     -9.44433592	      1.31552637	     -8.46850769	      6.19990071	      4.54206112
      0.85650000	      6.24503119	     -2.57850776	      0.93838455	     -0.37926230	      1.02094158	      0.32706929	     -7.45580131	      7.99617969	     -0.71429900	     -7.32833810	      5.54343335	    -12.35576881	     -4.42528083	     18.56915780	     -2.32466267	      1.07128512	    -56.50452332	      1.03066752	     -9.54768807	      1.21915342	     -8.47610874	      6.09625099	      4.61829353
      0.86066667	      6.20538356	     -2.50326850	      0.82265388	     -0.37433186	      1.02077161	      0.32733625	     -7.85639028	      7.91658063	     -0.55322259	     -7.08935448	      5.63421724	    -12.34478776	     -4.44728475	     18.86272550	     -2.23108702	      0.98227502	    -55.45213516	      1.22408083	     -9.65765254	      1.11860571	     -8.47720210	      5.99201385	      4.70703943
      0.86483333	      6.15825054	     -2.44729037	      0.71435691	     -0.36941196	      1.02051631	      0.32759011	     -8.24796696	      7.85771807	     -0.39246396	     -6.84909537	      5.72843623	    -12.35639626	     -4.47464799	     19.15659847	     -2.16316205	      0.89211754	    -54.37567182	      1.37900765	     -9.76533135	      0.99690972	     -8.47327233	      5.91157096	      4.80032860
      0.86900000	      6.12522029	     -2.38707781	      0.61452491	     -0.36448488	      1.02025827	      0.32782755	     -8.65625475	      7.79386932	     -0.24480538	     -6.60498517	      5.82858991	    -12.36311209	     -4.50132925	     19.41121286	     -2.08807933	      0.81053500	    -53.24736579	      1.50577956	     -9.86319337	      0.87993554	     -8.48371647	      5.82569271	      4.87237809
